<?xml version="1.0" encoding="UTF-8"?> <svg xmlns="http://www.w3.org/2000/svg" width="409.83" height="95.42" viewBox="0 0 409.83 95.42"><path d="M366.78,8.96c.3-.34,.62-.68,.96-1.02,2.14-2.02,4.17-3.46,6.88-4.62-2.71,1.15-4.74,2.59-6.88,4.61-.34,.34-.66,.68-.96,1.02m-2.06-.78c.49-.55,1.01-1.1,1.59-1.67,2.47-2.28,4.68-3.67,7.79-4.94,.37-.14,.74-.27,1.12-.4,7.16-2.14,2.47-.94-1.14,.35-3.11,1.25-5.34,2.67-7.79,4.97-.56,.56-1.09,1.12-1.58,1.69Zm1.64,3.85c.68-1.06,1.46-2.05,2.39-3.09,1.52-1.58,2.94-2.73,4.68-3.73-1.75,.98-3.17,2.12-4.7,3.71-.95,1.05-1.72,2.05-2.36,3.11Zm-1.41,2.64c-.14,.31-.29,.63-.42,.97-.28,.7-.52,1.38-.72,2.11,.21-.73,.45-1.4,.74-2.1,.06-.15,.12-.3,.19-.45,.07-.18,.15-.35,.22-.52Zm9.2-9.94c-.14,.1-.27,.21-.4,.3,.47-.26,.97-.52,1.5-.77,2.38-1.03,5.54-1.96,8.18-1.86,0,0,0,0-.02,0-3.38,.39-4.84,.5-8.15,1.88-.54,.25-1.05,.5-1.53,.76-1.9,1.4-2.92,1.9-4.92,3.95-1.22,1.33-2.17,2.57-2.97,3.97-.44,.83-.82,1.72-1.17,2.72-.12,.35-.22,.7-.32,1.05-.61,2.42-.81,4.38-.72,6.87,.18,2.84,.67,4.99,1.77,7.61,1.12,2.49,2.3,4.24,4.19,6.22,1.54,1.53,2.92,2.56,4.84,3.6,.45,.24,.89,.44,1.36,.64,2.63,1.06,4.8,1.42,7.64,1.35,2.79-.16,4.88-.69,7.4-1.91,2.33-1.21,3.94-2.47,5.67-4.45,1.62-1.97,2.6-3.7,3.39-6.12,.2-.64,.35-1.25,.48-1.9,.32-1.76,.32-3.25,.2-5.05-.01-.17-.03-.34-.05-.51-.41-2.89-.47-3.19-.71-.61-.04,.36-.04,.75-.05,1.12-.12,2.3-.48,4.19-1.44,6.29,0,.02-.58,1.17-.42,.62,.07-.23,.16-.47,.24-.7,.81-2.23,1.21-3.81,1.34-6.21,.03-1.12-.02-2.09-.17-3.2-.16-1.07-.37-2.2-.54-3.28-.18-.94-.42-1.72-.78-2.61-.56-1.32-1.14-2.34-1.95-3.52-.25-.36-1.9-2.25-1.32-2.49,.48,0,1.98,1.17,2.35,1.46,2.07,1.76,3.38,3.5,4.63,5.92,1.25,2.63,1.79,4.81,1.96,7.72,.07,2.95-.28,5.23-1.32,7.99-.32,.79-.65,1.5-1.07,2.24-1.11,1.86-1.91,2.76-3.31,4.3-.51,.58-.7,.85-1,1.56-.38,.98,1.53-1.03,1.53-1.03,1.95-2.13,3.16-4.22,4.27-6.89,.19-.48,.36-.96,.53-1.45,.74-2.32,.98-4.27,.94-6.71-.14-2.99-.67-5.24-1.91-7.97-1.25-2.55-2.56-4.33-4.62-6.27-1.32-1.18-2.46-2-4-2.85-1.21-.64-1.29-.61-1.29,.44-.08,.32-1.45-.7-1.59-.8-2.54-1.68-4.08-2.29-6.74-3.55-3.38-1.83,7.51,.27,8.07,.42,.41,.13,.81,.26,1.21,.4,2.49,.94,4.35,2.17,6.34,3.93,2.36,2.21,3.83,4.25,5.22,7.17,1.38,3.11,1.95,5.67,2.09,9.07,.03,3.44-.42,6.05-1.63,9.26-.86,2.13-1.76,3.75-3.09,5.61-.57,.78-1.14,1.46-1.79,2.16-2.35,2.43-4.51,3.93-7.58,5.34-3.25,1.38-5.92,1.94-9.46,2.03-3.55-.02-6.24-.53-9.53-1.84-2.93-1.26-5.02-2.6-7.37-4.74-.16-.15-.32-.3-.47-.45-2.42-2.44-3.92-4.65-5.31-7.79-1.34-3.31-1.89-6.02-1.92-9.58,.02-1.4,.11-2.69,.35-4.06,.37-1.97,.93-3.61,1.73-5.45,1.09-2.34,2.25-4.15,3.82-5.92-1.1,1.29-2.02,2.64-2.81,4.25-1.03,2.31,2.77-3.74,4.69-5.63,2.43-2.22,4.61-3.62,7.66-4.86,1.77-.66,4.14-1.35,6.05-1.44,.03,0-3.29,.55-5.99,1.58-3.02,1.26-5.17,2.65-7.57,4.87-2.45,2.41-3.81,4.35-5.37,7.36,0,.01-.04,.07-.05,.09-.99,1.94-.59,1.26,.15-.04,.74-1.3,1.49-2.4,2.4-3.59,.8-1.01-1.83,3.06-2.14,3.7-1.41,3.13-1.97,5.72-2.09,9.16,0,3.46,.5,6.07,1.8,9.28,1.34,3.05,2.81,5.17,5.17,7.51,.7,.66,1.37,1.24,2.14,1.82,11.8,8-.02-.27-1.93-2.03-2.29-2.34-3.71-4.45-5.03-7.45-1.28-3.15-1.79-5.73-1.81-9.14,.09-3.36,.61-5.99,2.01-9.05,.06-.13,.13-.26,.19-.39,4.5-8.07,1.4-2.83-.12,.42-.05,.07-.28,.65-.31,.77-.03,.16,.27-.51,.38-.74,1.41-2.9,2.82-4.86,5.12-7.16,2.32-2.17,4.39-3.51,7.31-4.76,.22-.09,.44-.18,.66-.26,2.41-.87,.29-.09-.65,.3-2.89,1.25-4.93,2.65-7.21,4.84-2.22,2.26-3.6,4.3-4.89,7.19-1.25,3.05-1.76,5.54-1.82,8.84,.04,3.3,.52,5.8,1.75,8.87,1.27,2.92,2.64,4.97,4.85,7.26,2.28,2.23,4.32,3.63,7.24,4.92,3.07,1.24,5.6,1.8,8.89,1.83,.34,0,.7,0,1.04-.02,.13,0-.64,.01-1.04,0-3.29-.05-5.81-.6-8.88-1.85-2.91-1.29-4.94-2.69-7.21-4.92-2.2-2.29-3.57-4.34-4.82-7.26-1.18-3.03-1.72-5.59-1.69-8.84-.01-.07,.03-.86,.06-.98,.2-.79,.19-1.02,.3-1.89,.15-1.08,.36-2,.72-3.03,.33-.98,.61-1.8,1.02-2.76,1.07-2.37,2.22-4.17,3.86-6-1.63,1.83-2.78,3.64-3.81,6.02-.13,.19-.88,2.38-.87,2.68,.07,.37,.7-1.39,.76-1.54-.17,.78-.33,1.56-.51,2.33-.3,1.26-.61,2.93-.54,4.22,.06,.76,.32-2.47,.51-3.3,.38-1.48,.74-2.67,1.33-4.11,1.2-2.74,2.49-4.69,4.55-6.86,2.13-2.11,4.07-3.48,6.79-4.72,.61-.26,1.21-.5,1.83-.71-.61,.28-1.17,.57-1.76,.9-1.18,.68-2.14,1.34-3.18,2.21,.72-.5,1.47-.95,2.25-1.35Z" fill="#d14124"></path><path d="M323.22,40.28h6.54v7.25c1.94-2.86,4-4.98,6.16-6.38,2.16-1.39,4.42-2.09,6.75-2.09,1.77,0,3.66,.56,5.66,1.68l-3.33,5.35c-1.34-.58-2.46-.87-3.38-.87-2.13,0-4.19,.87-6.16,2.61-1.98,1.74-3.49,4.47-4.53,8.14-.79,2.82-1.18,8.53-1.18,17.12v16.76h-6.54V40.28Zm-16.32,19.79c-.86-3.41-2.1-6.12-3.73-8.15-1.65-2.04-3.81-3.67-6.5-4.92-2.69-1.24-5.52-1.87-8.48-1.87-4.9,0-9.1,1.56-12.62,4.68-2.58,2.29-4.51,5.7-5.84,10.26h37.18Zm-.06,13.35l5.38,2.83c-1.77,3.44-3.81,6.22-6.13,8.34-2.32,2.1-4.92,3.72-7.81,4.82-2.91,1.1-6.18,1.65-9.83,1.65-8.12,0-14.46-2.65-19.03-7.94-4.58-5.29-6.86-11.27-6.86-17.93,0-6.27,1.95-11.87,5.82-16.77,4.9-6.24,11.48-9.37,19.72-9.37s15.27,3.21,20.32,9.6c3.59,4.51,5.43,10.15,5.49,16.92h-44.82c.12,5.74,1.98,10.44,5.54,14.1,3.58,3.67,8,5.51,13.24,5.51,2.54,0,5.01-.44,7.41-1.31,2.4-.87,4.43-2.02,6.12-3.47,1.68-1.45,3.5-3.77,5.45-6.99Zm-79.52,11.48c3.53,0,6.82-.87,9.8-2.6,3-1.74,5.38-4.19,7.16-7.33,1.77-3.13,2.66-6.46,2.66-9.96s-.89-6.85-2.68-10.02c-1.79-3.16-4.19-5.63-7.21-7.41-3.02-1.76-6.24-2.65-9.66-2.65s-6.79,.89-9.93,2.65c-3.13,1.77-5.54,4.16-7.22,7.14-1.68,2.99-2.52,6.35-2.52,10.1,0,5.71,1.88,10.49,5.67,14.32,3.77,3.84,8.4,5.76,13.93,5.76Zm-25.57,4.95V21.14h6.35v27.73c2.68-3.28,5.66-5.74,8.98-7.36,3.32-1.63,6.94-2.44,10.88-2.44,7.02,0,13.01,2.54,17.97,7.61,4.96,5.09,7.45,11.24,7.45,18.49s-2.5,13.26-7.52,18.32c-5.01,5.06-11.03,7.59-18.08,7.59-4.05,0-7.7-.86-10.99-2.57-3.28-1.71-6.18-4.29-8.7-7.77v9.12h-6.35ZM113.69,40.28h6.35v8.57c2.23-3.16,4.5-5.48,6.85-6.94,3.22-1.9,6.61-2.85,10.16-2.85,2.41,0,4.68,.47,6.85,1.42,2.16,.93,3.92,2.19,5.29,3.75,1.37,1.57,2.55,3.81,3.56,6.74,2.12-3.89,4.78-6.85,7.95-8.87,3.19-2.02,6.61-3.03,10.29-3.03,3.42,0,6.46,.87,9.07,2.6,2.63,1.73,4.57,4.14,5.85,7.24,1.28,3.1,1.91,7.73,1.91,13.93v27.03h-6.54v-27.05c0-5.32-.37-8.96-1.14-10.96-.76-1.99-2.05-3.59-3.89-4.81-1.84-1.21-4.02-1.82-6.57-1.82-3.08,0-5.91,.92-8.47,2.74-2.57,1.82-4.43,4.25-5.62,7.28-1.18,3.03-1.77,8.11-1.77,15.2v19.41h-6.35v-25.37c0-5.98-.37-10.04-1.12-12.19-.75-2.15-2.04-3.86-3.89-5.15-1.87-1.29-4.06-1.93-6.61-1.93-2.96,0-5.71,.89-8.28,2.66-2.57,1.77-4.47,4.17-5.7,7.17-1.23,3-1.85,7.61-1.85,13.8v20.99h-6.35V40.28Zm-57.59,0h6.35v23.14c0,5.65,.31,9.52,.92,11.66,.9,3.04,2.66,5.43,5.23,7.19,2.57,1.76,5.65,2.65,9.21,2.65s6.58-.86,9.07-2.57c2.47-1.73,4.2-3.97,5.14-6.77,.64-1.91,.96-5.96,.96-12.15v-23.14h6.54v24.31c0,6.83-.79,11.97-2.4,15.42-1.59,3.47-4,6.18-7.21,8.12-3.21,1.96-7.22,2.94-12.06,2.94s-8.87-.98-12.11-2.94c-3.24-1.95-5.66-4.68-7.25-8.19-1.6-3.5-2.4-8.78-2.4-15.81v-23.86ZM0,40.28H6.35v8.89c2.57-3.39,5.4-5.93,8.5-7.59,3.11-1.66,6.49-2.51,10.15-2.51s7.02,.93,9.9,2.82c2.88,1.88,5.01,4.42,6.38,7.61,1.37,3.17,2.05,8.14,2.05,14.88v25.49h-6.35v-23.62c0-5.7-.25-9.51-.73-11.42-.78-3.27-2.21-5.73-4.31-7.39-2.1-1.65-4.84-2.47-8.22-2.47-3.87,0-7.35,1.28-10.39,3.83-3.07,2.54-5.09,5.7-6.05,9.46-.61,2.46-.92,6.94-.92,13.46v18.16H0V40.28Z" fill="#fff"></path><path d="M406.05,60.43c-.16-.48-.34-.96-.54-1.46-1.31-3-2.76-5.36-5.03-7.71,2.28,2.35,3.73,4.7,5.04,7.71,.2,.5,.37,.98,.54,1.46m2.45,.1c-.26-.78-.56-1.57-.9-2.4-1.54-3.4-3.19-5.79-5.83-8.44-.32-.31-.64-.6-.97-.89-6.4-5.3-2.12-2.04,1.01,.85,2.64,2.63,4.3,5.05,5.81,8.47,.33,.82,.63,1.61,.88,2.41Zm-3.36,3.23c-.23-1.38-.6-2.74-1.1-4.19-.87-2.28-1.83-4.07-3.16-5.85,1.36,1.77,2.33,3.55,3.2,5.83,.52,1.49,.87,2.84,1.07,4.21Zm.3,3.31c.01,.38,.02,.77,.02,1.17-.02,.84-.07,1.64-.18,2.47,.1-.84,.15-1.63,.16-2.47,0-.18,0-.36,0-.54,0-.21,0-.43,0-.63Zm-5.09-14.16c.1,.17,.19,.33,.28,.48-.37-.48-.77-.95-1.2-1.44-1.99-2.09-4.81-4.42-7.55-5.45,0,.01,0,0,.01,.02,3.28,1.87,4.74,2.61,7.52,5.46,.45,.49,.86,.97,1.24,1.45,1.34,2.26,2.16,3.21,3.32,6.17,.67,1.89,1.1,3.57,1.32,5.35,.09,1.04,.09,2.12,.02,3.29-.03,.41-.08,.81-.13,1.21-.43,2.74-1.07,4.83-2.25,7.34-1.42,2.83-2.85,4.81-5.12,7.02-2.23,2.06-4.2,3.34-6.99,4.54-2.24,.9-4.1,1.35-6.51,1.58-.56,.05-1.11,.07-1.67,.07-3.15-.06-5.52-.64-8.4-1.94-2.79-1.38-4.69-2.82-6.74-5.17-1.86-2.26-2.96-4.24-3.87-7.01-.8-2.72-1.05-4.91-.81-7.73,.08-.74,.18-1.43,.34-2.16,.44-1.94,1.08-3.46,1.98-5.25,.09-.17,.18-.33,.27-.5,1.67-2.77,1.86-3.06,.99-.32-.12,.38-.29,.79-.43,1.16-.87,2.4-1.33,4.49-1.26,7.06,0,.02,.09,1.45,.17,.82,.03-.27,.04-.55,.06-.82,.14-2.64,.41-4.42,1.33-6.94,.45-1.16,.92-2.13,1.56-3.2,.63-1.03,1.33-2.09,1.98-3.12,.59-.88,1.18-1.58,1.93-2.33,1.15-1.11,2.18-1.9,3.52-2.75,.41-.26,2.93-1.48,2.43-1.98-.49-.2-2.54,.34-3.04,.48-2.88,.9-4.98,2.11-7.31,4.05-2.42,2.14-3.92,4.14-5.36,7.04-1.36,2.99-1.99,5.47-2.12,8.74-.02,.94,.01,1.81,.12,2.75,.33,2.38,.76,3.65,1.52,5.84,.27,.81,.34,1.18,.35,2.03-.04,1.17-1.12-1.72-1.12-1.72-1.06-3.03-1.4-5.69-1.38-8.9,.01-.57,.04-1.14,.09-1.71,.25-2.7,.86-4.79,1.96-7.27,1.44-3,2.97-5.07,5.42-7.32,2.39-2.07,4.5-3.32,7.46-4.41,1.87-.63,3.38-.97,5.33-1.18,1.52-.12,1.58-.06,1.12,1.01-.06,.35,1.79-.09,1.97-.12,3.33-.62,5.17-.57,8.44-.7,4.25-.4-7.8-2.99-8.43-3.07-.47-.05-.94-.08-1.41-.11-2.96-.13-5.39,.33-8.19,1.26-3.37,1.24-5.77,2.69-8.46,5.07-2.76,2.58-4.46,4.95-6.07,8.37-1.52,3.51-2.19,6.37-2.35,10.18-.04,2.55,.17,4.6,.72,7.08,.25,1.04,.53,1.99,.9,2.99,1.35,3.5,2.91,5.98,5.44,8.76,2.73,2.83,5.21,4.56,8.79,6.18,3.64,1.52,6.61,2.16,10.55,2.26,3.54-.02,6.26-.48,9.6-1.64,.23-.08,.45-.17,.68-.26,3.53-1.44,6.03-3.05,8.81-5.67,2.81-2.8,4.55-5.34,6.13-8.97,.59-1.44,1.05-2.8,1.4-4.31,.47-2.17,.62-4.1,.6-6.33-.1-2.87-.5-5.22-1.33-7.72,.57,1.79,.92,3.58,1.03,5.57,.05,2.81-1.21-5.03-2.35-7.8-1.52-3.33-3.14-5.7-5.73-8.3-1.53-1.44-3.65-3.17-5.56-4.1-.03,0,3.13,1.99,5.44,4.22,2.54,2.6,4.13,4.96,5.63,8.27,1.46,3.52,2.01,6.11,2.3,9.86,0,.02,0,.09,0,.11,.17,2.41,.05,1.55-.13-.11-.19-1.65-.48-3.1-.89-4.71-.38-1.38,.54,3.92,.58,4.71,.08,3.81-.47,6.71-1.84,10.28-1.5,3.54-3.15,5.99-5.88,8.71-2.7,2.53-5.12,4.06-8.55,5.44-1,.38-1.94,.67-2.98,.93-15.54,3.05,.13-.27,2.86-1.23,3.36-1.4,5.73-2.94,8.39-5.43,2.68-2.67,4.32-5.09,5.82-8.56,1.37-3.48,1.98-6.4,1.87-10.13,0-.16-.01-.32-.02-.48-1.1-10.21-.21-3.51-.06,.48,.02,.09,0,.79-.02,.92-.04,.18-.06-.64-.07-.92-.19-3.58-.78-6.19-2.13-9.55-1.43-3.23-2.96-5.5-5.41-8.05-.19-.19-.37-.37-.57-.55-2.09-1.94-.26-.22,.53,.58,2.41,2.54,3.89,4.85,5.28,8.08,1.29,3.27,1.81,5.96,1.87,9.48-.04,3.66-.61,6.43-1.98,9.83-1.47,3.36-3.05,5.7-5.64,8.31-2.57,2.44-4.86,3.94-8.12,5.32-3.3,1.29-6,1.84-9.54,1.89-3.68-.06-6.51-.6-9.89-1.99-.35-.15-.71-.31-1.05-.48-.13-.06,.65,.29,1.06,.46,3.39,1.38,6.21,1.91,9.88,1.97,3.53-.06,6.23-.6,9.52-1.9,3.24-1.39,5.54-2.89,8.08-5.33,2.53-2.58,4.19-4.97,5.56-8.31,.04-.07,.34-.89,.37-1.03,.14-.89,.25-1.13,.51-2.06,.31-1.18,.5-2.2,.58-3.41,.09-1.14,.16-2.1,.16-3.27-.06-2.89-.46-5.23-1.35-7.81,.87,2.58,1.26,4.93,1.28,7.81,.05,.25-.13,2.81-.28,3.12-.24,.34-.12-1.73-.11-1.91-.16,.87-.34,1.74-.49,2.61-.24,1.42-.65,3.26-1.28,4.55-.4,.75,.75-2.66,.91-3.6,.25-1.68,.41-3.06,.42-4.78-.03-3.33-.51-5.88-1.68-9-1.26-3.09-2.65-5.32-4.9-7.77-.5-.53-1.02-1.04-1.56-1.53,.5,.55,.96,1.09,1.41,1.68,.91,1.2,1.6,2.3,2.29,3.64-.52-.82-1.1-1.61-1.72-2.36Z" fill="#d14124"></path></svg> 